<?xml version="1.0" encoding="utf-8"?>
<!-- Generator: Adobe Illustrator 17.1.0, SVG Export Plug-In . SVG Version: 6.00 Build 0)  -->
<!DOCTYPE svg PUBLIC "-//W3C//DTD SVG 1.1//EN" "http://www.w3.org/Graphics/SVG/1.1/DTD/svg11.dtd">
<svg version="1.1" id="Layer_1" xmlns="http://www.w3.org/2000/svg" xmlns:xlink="http://www.w3.org/1999/xlink" x="0px" y="0px" viewBox="0 0 475 250" style="enable-background:new 0 0 475 250;" xml:space="preserve" width="475" height="250">
<g>
	<path style="fill:#F6C473;" d="M469.1,115c1.3-18.1,8.2-62.8,2.9-67.1c-4.7-3.8-9.1-0.5-10.5,5.4c-2.6,7.9-7.9,38-9.4,41.3
		c0,0-2.5,3.8-4.8,1.4c0,0-0.1-0.8,0.2-6.5c1-15.8,1.4-68.7-6.4-68.8c-12.5-2-12.1,10-12.1,13.2c0,2.6-2.1,36.5-2.2,50.2
		c0,0,0.3,6.5-2.7,6.8c-2.4-0.4-2.8-5.2-2.7-8.4c0.5-16.8-4.3-64.2-6.9-70.3c-2.3-4.3-6.7-4.1-6.7-4.1s-9.1-0.2-9.1,8.6
		c0,15.6,2,56.9,1.7,69c0,0,1.3,6.3-0.5,6.1c-2.4-0.2-2.7-3.1-2.7-3.1c-2-5.3-3.9-11.2-16.2-54.4c-2.6-7.2-14.8-3.8-14.2,3.2
		c0,15.1,8.1,46.7,9.2,55.6c0.9,6.7,1.9,9.3,2.4,14.9c0.7,8.3,0.6,12.7-3.6,15.2c-1.3,0.8-4.4,2.3-9.3-1c-2.5-1.7-5.3-4.2-8.2-7.2
		c-9.8-13.2-20.6-16.9-32.2-14.4c-7.9,2.9-3.9,6.8,0,8.6c4.6,1.9,10.1,10.7,14.8,16.5c0.3,0.3,0.6,0.7,0.8,1
		c0.5,0.6,0.9,1.1,1.3,1.5c0.3,0.4,0.6,0.7,0.8,1c0.2,0.2,1.2,1.3,1.4,1.4c6,12.1,16.9,26.7,20.6,32.1c5.1,7.3,20.9,21.1,20.9,21.1
		c7.8,5.9,2.1,40.8,2.1,40.8l-1.4,16h73.8l-2.9-16.6c0,0-5.5-28.6,0-38.3C462.7,163,473,158.3,469.1,115z"/>
	<path style="fill:#FFE4BE;" d="M367.7,37.3c0,0,1.4-5.1,7-5.4c3.7-0.2,5.4,3.1,5.4,3.1l0.9,8.1c0,0-5.7,4.2-11.1,2.2
		C368.4,40,367.7,37.3,367.7,37.3z"/>
	<path style="fill:#FFE4BE;" d="M401,13.7c0,0,1.3-3.3,6.4-3.6c5.1-0.2,5.6,2.7,5.6,2.7l-0.2,8.1c0,0-1.2,1.8-5.2,1.8
		c-4.1,0-5.5-1.1-5.5-1.1L401,13.7z"/>
	<path style="fill:#FFE4BE;" d="M432.4,25.4c0,0,1.4-3.3,6.2-3.5s5.4,3.8,5.4,3.8s-0.2,4.7-0.6,7.2c0,0.4-5.8,1.7-9.6,0.3
		C432.5,27.6,432.4,25.4,432.4,25.4z"/>
	<path style="fill:#FFE4BE;" d="M464.2,50.4c0,0,1.1-3.6,5.1-2.7c4,0.9,3.2,3.9,3.2,3.9l-1.7,5.4c0,0-5.2-0.1-6.8-0.8
		C464.1,54.1,464,52.6,464.2,50.4z"/>
	<path style="fill:#FFE4BE;" d="M320.5,105.7c0,0,6.3-4.5,12.2,1.2c5.8,5.6,6.3,7.5,6.3,7.5l-4.2,3.3c0,0-13.7-9.8-14.2-11.6"/>
	<g>
		<g>
			<path style="fill:#726659;" d="M397.8,136.1h-0.4c-0.2-0.1-0.5-0.1-0.9-0.1c-0.4,0-0.7,0-1,0c-0.6,0-1.1,0-1.6,0.1
				c-0.5,0.1-1,0.2-1.5,0.4v8.9h-4.3V132h4.3v2c0.9-0.8,1.8-1.3,2.5-1.6c0.7-0.3,1.3-0.4,1.9-0.4c0.2,0,0.3,0,0.5,0
				c0.2,0,0.4,0,0.5,0V136.1z"/>
			<path style="fill:#726659;" d="M404.6,130.1h-4.5v-3.2h4.5V130.1z M404.5,145.3h-4.3V132h4.3V145.3z"/>
			<path style="fill:#726659;" d="M421.5,143.8c0,1.3-0.2,2.3-0.5,3.2c-0.4,0.9-0.9,1.5-1.5,2c-0.6,0.5-1.4,0.8-2.3,1.1
				c-0.9,0.2-1.9,0.3-3.1,0.3c-0.9,0-1.8-0.1-2.7-0.2c-0.9-0.1-1.7-0.2-2.3-0.4v-3.3h0.5c0.5,0.2,1.2,0.4,1.9,0.6s1.4,0.3,2,0.3
				c0.8,0,1.4-0.1,1.9-0.2c0.5-0.1,0.9-0.4,1.1-0.6c0.2-0.3,0.4-0.6,0.5-1c0.1-0.4,0.2-0.9,0.2-1.4v-0.2c-0.5,0.4-1.1,0.8-1.7,1
				c-0.6,0.2-1.3,0.4-2.1,0.4c-1.9,0-3.3-0.6-4.3-1.7s-1.5-2.8-1.5-5.1c0-1.1,0.2-2.1,0.5-2.9c0.3-0.8,0.7-1.5,1.3-2.1
				c0.5-0.6,1.2-1,1.9-1.3c0.8-0.3,1.5-0.5,2.3-0.5c0.7,0,1.4,0.1,2,0.3s1.1,0.4,1.6,0.7l0.2-0.6h4.2V143.8z M417.2,141.1v-6.1
				c-0.2-0.1-0.5-0.2-0.9-0.2c-0.4-0.1-0.7-0.1-1-0.1c-1.1,0-2,0.3-2.5,1c-0.6,0.6-0.8,1.5-0.8,2.7c0,1.3,0.2,2.2,0.7,2.7
				c0.5,0.5,1.2,0.8,2.1,0.8c0.4,0,0.8-0.1,1.3-0.2C416.5,141.5,416.9,141.4,417.2,141.1z"/>
			<path style="fill:#726659;" d="M439,145.3h-4.3v-6.6c0-0.5,0-1.1-0.1-1.6s-0.2-0.9-0.3-1.2c-0.2-0.3-0.4-0.5-0.7-0.6
				c-0.3-0.1-0.7-0.2-1.3-0.2c-0.4,0-0.8,0.1-1.2,0.2s-0.8,0.3-1.3,0.6v9.5h-4.3v-18.5h4.3v6.6c0.8-0.6,1.5-1.1,2.2-1.4
				c0.7-0.3,1.5-0.5,2.3-0.5c1.4,0,2.6,0.4,3.4,1.3c0.8,0.8,1.2,2.1,1.2,3.8V145.3z"/>
			<path style="fill:#726659;" d="M451.4,145.2c-0.5,0.1-0.9,0.2-1.5,0.3c-0.5,0.1-1.1,0.1-1.9,0.1c-1.7,0-2.9-0.3-3.7-1
				s-1.2-1.8-1.2-3.5v-6.2h-1.8V132h1.8v-3.8h4.3v3.8h4v2.9h-4v4.7c0,0.5,0,0.9,0,1.2c0,0.3,0.1,0.7,0.2,0.9
				c0.1,0.3,0.3,0.5,0.6,0.7c0.3,0.2,0.7,0.2,1.2,0.2c0.2,0,0.5,0,0.9-0.1c0.4-0.1,0.6-0.2,0.8-0.3h0.4V145.2z"/>
		</g>
	</g>
</g>
<g>
	<path style="fill:#726659;" d="M223.5,135.1v8.7h-3.9v-6.1c0-0.6,0-1.1,0-1.5c0-0.4-0.1-0.8-0.2-1c-0.1-0.3-0.3-0.5-0.6-0.6
		s-0.6-0.2-1.1-0.2c-0.4,0-0.8,0.1-1.1,0.2s-0.7,0.3-1,0.5v8.7h-3.9v-12.3h3.9v1.4c0.7-0.5,1.3-0.9,1.9-1.2c0.6-0.3,1.3-0.4,2-0.4
		c0.8,0,1.5,0.2,2.1,0.5c0.6,0.4,1.1,0.9,1.4,1.6c0.8-0.7,1.5-1.2,2.3-1.6c0.7-0.4,1.5-0.6,2.2-0.6c1.3,0,2.3,0.4,3,1.2
		c0.7,0.8,1,1.9,1,3.4v8h-3.9v-6.1c0-0.6,0-1.1,0-1.5c0-0.4-0.1-0.8-0.2-1c-0.1-0.3-0.3-0.5-0.6-0.6s-0.6-0.2-1.1-0.2
		c-0.3,0-0.6,0.1-1,0.2C224.3,134.7,223.9,134.9,223.5,135.1z"/>
	<path style="fill:#726659;" d="M239.2,129.8H235v-3h4.2V129.8z M239.1,143.8h-3.9v-12.3h3.9V143.8z"/>
	<path style="fill:#726659;" d="M254.7,143.8h-3.9v-1.3c-0.7,0.6-1.3,1-1.9,1.2s-1.3,0.4-2,0.4c-1.5,0-2.7-0.6-3.6-1.7
		c-0.9-1.1-1.3-2.7-1.3-4.6c0-1,0.2-2,0.5-2.8c0.3-0.8,0.7-1.5,1.2-2.1c0.5-0.5,1.1-1,1.8-1.3s1.4-0.5,2.1-0.5
		c0.7,0,1.3,0.1,1.8,0.2c0.5,0.2,1,0.4,1.4,0.6v-5.2h3.9V143.8z M250.8,140.4v-6c-0.3-0.1-0.6-0.2-0.9-0.3s-0.6-0.1-0.8-0.1
		c-1,0-1.8,0.3-2.3,1c-0.5,0.6-0.8,1.5-0.8,2.7c0,1.2,0.2,2.1,0.6,2.6c0.4,0.5,1.1,0.8,2,0.8c0.4,0,0.7-0.1,1.1-0.2
		S250.4,140.7,250.8,140.4z"/>
	<path style="fill:#726659;" d="M270.3,143.8h-3.9v-1.3c-0.7,0.6-1.3,1-1.9,1.2s-1.3,0.4-2,0.4c-1.5,0-2.7-0.6-3.6-1.7
		c-0.9-1.1-1.3-2.7-1.3-4.6c0-1,0.2-2,0.5-2.8c0.3-0.8,0.7-1.5,1.2-2.1c0.5-0.5,1.1-1,1.8-1.3s1.4-0.5,2.1-0.5
		c0.7,0,1.3,0.1,1.8,0.2c0.5,0.2,1,0.4,1.4,0.6v-5.2h3.9V143.8z M266.4,140.4v-6c-0.3-0.1-0.6-0.2-0.9-0.3s-0.6-0.1-0.8-0.1
		c-1,0-1.8,0.3-2.3,1c-0.5,0.6-0.8,1.5-0.8,2.7c0,1.2,0.2,2.1,0.6,2.6c0.4,0.5,1.1,0.8,2,0.8c0.4,0,0.7-0.1,1.1-0.2
		S266.1,140.7,266.4,140.4z"/>
	<path style="fill:#726659;" d="M278,143.8H274v-17h3.9V143.8z"/>
	<path style="fill:#726659;" d="M293.7,138.4h-9c0.1,1,0.4,1.7,1.1,2.2c0.7,0.5,1.7,0.8,3,0.8c0.8,0,1.6-0.1,2.4-0.4
		c0.8-0.3,1.4-0.6,1.8-1h0.4v3.2c-0.9,0.4-1.7,0.6-2.5,0.8c-0.8,0.2-1.7,0.2-2.6,0.2c-2.5,0-4.3-0.6-5.7-1.7c-1.3-1.1-2-2.7-2-4.7
		c0-2,0.6-3.6,1.9-4.8c1.2-1.2,2.9-1.8,5.1-1.8c2,0,3.5,0.5,4.5,1.5s1.5,2.5,1.5,4.3V138.4z M289.8,136.1c0-0.8-0.2-1.4-0.6-1.9
		c-0.4-0.4-1-0.6-1.8-0.6c-0.8,0-1.4,0.2-1.9,0.6c-0.5,0.4-0.8,1-0.8,1.9H289.8z"/>
</g>
<g>
	<path style="fill:#F6C473;" d="M36.7,115c-1.3-18.1-8.2-62.8-2.9-67.1c4.7-3.8,9.1-0.5,10.5,5.4c2.6,7.9,7.9,38,9.4,41.3
		c0,0,2.5,3.8,4.8,1.4c0,0,0.1-0.8-0.2-6.5c-1-15.8-1.4-68.7,6.4-68.8c12.5-2,12.1,10,12.1,13.2c0,2.6,2.1,36.5,2.2,50.2
		c0,0-0.3,6.5,2.7,6.8c2.4-0.4,2.8-5.2,2.7-8.4c-0.5-16.8,4.3-64.2,6.9-70.3C93.6,7.9,98,8.1,98,8.1s9.1-0.2,9.1,8.6
		c0,15.6-2,56.9-1.7,69c0,0-1.3,6.3,0.5,6.1c2.4-0.2,2.7-3.1,2.7-3.1c2-5.3,3.9-11.2,16.2-54.4c2.6-7.2,14.8-3.8,14.2,3.2
		c0,15.1-8.1,46.7-9.2,55.6c-0.9,6.7-1.9,9.3-2.4,14.9c-0.7,8.3-0.6,12.7,3.6,15.2c1.3,0.8,4.4,2.3,9.3-1c2.5-1.7,5.3-4.2,8.2-7.2
		c9.8-13.2,20.6-16.9,32.2-14.4c7.9,2.9,3.9,6.8,0,8.6c-4.6,1.9-10.1,10.7-14.8,16.5c-0.3,0.3-0.6,0.7-0.8,1
		c-0.5,0.6-0.9,1.1-1.3,1.5c-0.3,0.4-0.6,0.7-0.8,1c-0.2,0.2-1.2,1.3-1.4,1.4c-6,12.1-16.9,26.7-20.6,32.1
		c-5.1,7.3-20.9,21.1-20.9,21.1c-7.8,5.9-2.1,40.8-2.1,40.8l1.4,16H45.6l2.9-16.6c0,0,5.5-28.6,0-38.3C43.1,163,32.9,158.3,36.7,115
		z"/>
	<path style="fill:#FFE4BE;" d="M138.1,37.3c0,0-1.4-5.1-7-5.4c-3.7-0.2-5.4,3.1-5.4,3.1l-0.9,8.1c0,0,5.7,4.2,11.1,2.2
		C137.4,40,138.1,37.3,138.1,37.3z"/>
	<path style="fill:#FFE4BE;" d="M104.9,13.7c0,0-1.3-3.3-6.4-3.6c-5.1-0.2-5.6,2.7-5.6,2.7L93,21c0,0,1.2,1.8,5.2,1.8
		s5.5-1.1,5.5-1.1L104.9,13.7z"/>
	<path style="fill:#FFE4BE;" d="M73.4,25.4c0,0-1.4-3.3-6.2-3.5s-5.4,3.8-5.4,3.8s0.2,4.7,0.6,7.2c0,0.4,5.8,1.7,9.6,0.3
		C73.3,27.6,73.4,25.4,73.4,25.4z"/>
	<path style="fill:#FFE4BE;" d="M41.7,50.4c0,0-1.1-3.6-5.1-2.7c-4,0.9-3.2,3.9-3.2,3.9l1.7,5.4c0,0,5.2-0.1,6.8-0.8
		C41.8,54.1,41.9,52.6,41.7,50.4z"/>
	<path style="fill:#FFE4BE;" d="M185.7,105.7c0,0-6.3-4.5-12.2,1.2c-5.8,5.6-6.3,7.5-6.3,7.5l4.2,3.3c0,0,13.7-9.8,14.2-11.6"/>
	<g>
		<g>
			<path style="fill:#726659;" d="M68.9,145.3h-4.3v-18.5h4.3V145.3z"/>
			<path style="fill:#726659;" d="M86,139.5h-9.8c0.1,1,0.5,1.8,1.2,2.4s1.8,0.8,3.2,0.8c0.9,0,1.8-0.2,2.6-0.5c0.8-0.3,1.5-0.7,2-1
				h0.5v3.4c-1,0.4-1.9,0.7-2.7,0.8c-0.9,0.2-1.8,0.3-2.8,0.3c-2.7,0-4.7-0.6-6.2-1.8c-1.4-1.2-2.1-2.9-2.1-5.1c0-2.2,0.7-3.9,2-5.2
				c1.4-1.3,3.2-1.9,5.6-1.9c2.2,0,3.8,0.5,4.9,1.6c1.1,1.1,1.6,2.7,1.6,4.7V139.5z M81.8,136.9c0-0.9-0.2-1.6-0.7-2
				c-0.4-0.5-1.1-0.7-2-0.7c-0.8,0-1.5,0.2-2,0.6c-0.5,0.4-0.8,1.1-0.9,2.1H81.8z"/>
			<path style="fill:#726659;" d="M97.7,130h-0.3c-0.2-0.1-0.4-0.1-0.7-0.2s-0.6-0.1-1-0.1c-0.8,0-1.4,0.2-1.7,0.5
				c-0.3,0.3-0.4,0.9-0.4,1.7v0.1h3.3v2.9h-3.2v10.5h-4.3v-10.5h-1.8V132h1.8v-0.4c0-1.6,0.4-2.9,1.3-3.7c0.9-0.8,2.2-1.2,3.9-1.2
				c0.6,0,1.2,0,1.7,0.1c0.5,0,1,0.1,1.4,0.2V130z"/>
			<path style="fill:#726659;" d="M107.9,145.2c-0.5,0.1-0.9,0.2-1.5,0.3c-0.5,0.1-1.1,0.1-1.9,0.1c-1.7,0-2.9-0.3-3.7-1
				s-1.2-1.8-1.2-3.5v-6.2h-1.8V132h1.8v-3.8h4.3v3.8h4v2.9h-4v4.7c0,0.5,0,0.9,0,1.2c0,0.3,0.1,0.7,0.2,0.9
				c0.1,0.3,0.3,0.5,0.6,0.7c0.3,0.2,0.7,0.2,1.2,0.2c0.2,0,0.5,0,0.9-0.1c0.4-0.1,0.6-0.2,0.8-0.3h0.4V145.2z"/>
		</g>
	</g>
</g>
</svg>
